<svg xmlns="http://www.w3.org/2000/svg" viewBox="0 0 48 48" fill="none" stroke="#42F5FF" stroke-width="2" stroke-linecap="round" stroke-linejoin="round" role="img" aria-label="Docker">
  <title>Docker</title>
  <g stroke-width="2">
    <rect x="9"  y="24" width="6" height="6" rx="1"/>
    <rect x="17" y="24" width="6" height="6" rx="1"/>
    <rect x="25" y="24" width="6" height="6" rx="1"/>
    <rect x="17" y="16" width="6" height="6" rx="1"/>
    <rect x="25" y="16" width="6" height="6" rx="1"/>
  </g>
  <path d="M6 30h30c4 0 6-2 6.5-5 1.6 1.2 3.5 1 4.5 0-.5 3-3 6-8 7-2.4.5-5 .6-7 .5-3 5-9 7-15 6.5C11 48.4 7 44 6 38"/>
  <path d="M32 15c1.5 1 2 3 1.5 4.5-1.6-.4-2.6-1.8-2.4-3.4"/>
</svg>
