<svg xmlns="http://www.w3.org/2000/svg" viewBox="0 0 48 48" fill="none" stroke="#42F5FF" stroke-width="2.2" stroke-linecap="round" stroke-linejoin="round" role="img" aria-label="Linux">
  <title>Linux</title>
  <path d="M19 10c-2 1-3 4-3 8 0 3-1 5-3 8-2 3-4 6-4 9 0 3 3 4 8 4h14c5 0 8-1 8-4 0-3-2-6-4-9-2-3-3-5-3-8 0-4-1-7-3-8a5 5 0 0 0-7 0Z"/>
  <circle cx="20.5" cy="18" r="1.6" fill="#42F5FF" stroke="none"/>
  <circle cx="27.5" cy="18" r="1.6" fill="#42F5FF" stroke="none"/>
  <path d="M21 23c1 1.5 5 1.5 6 0"/>
  <path d="M18 40c0-3 2-5 6-5s6 2 6 5"/>
</svg>
