<svg xmlns="http://www.w3.org/2000/svg" viewBox="0 0 48 48" fill="none" stroke="#42F5FF" stroke-width="2.4" stroke-linecap="round" stroke-linejoin="round" role="img" aria-label="Python">
  <title>Python</title>
  <path d="M24 6c-6 0-9 2-9 6v5h9"/>
  <path d="M15 17H9c-3 0-4 3-4 7s1 7 4 7h6v-6c0-3 2-5 5-5h8c3 0 5-2 5-5V12c0-4-3-6-9-6"/>
  <path d="M33 31h6c3 0 4-3 4-7s-1-7-4-7h-6v6c0 3-2 5-5 5h-8c-3 0-5 2-5 5v6c0 4 3 6 9 6s9-2 9-6v-5h-9"/>
  <circle cx="20" cy="11.5" r="1.4" fill="#42F5FF" stroke="none"/>
  <circle cx="28" cy="36.5" r="1.4" fill="#42F5FF" stroke="none"/>
</svg>
